<?xml version="1.0" encoding="UTF-8" standalone="no"?>
<!-- Created with Inkscape (http://www.inkscape.org/) -->

<svg
   xmlns:osb="http://www.openswatchbook.org/uri/2009/osb"
   xmlns:dc="http://purl.org/dc/elements/1.1/"
   xmlns:cc="http://creativecommons.org/ns#"
   xmlns:rdf="http://www.w3.org/1999/02/22-rdf-syntax-ns#"
   xmlns:svg="http://www.w3.org/2000/svg"
   xmlns="http://www.w3.org/2000/svg"
   xmlns:xlink="http://www.w3.org/1999/xlink"
   xmlns:sodipodi="http://sodipodi.sourceforge.net/DTD/sodipodi-0.dtd"
   xmlns:inkscape="http://www.inkscape.org/namespaces/inkscape"
   width="210mm"
   height="297mm"
   viewBox="0 0 210 297"
   version="1.1"
   id="svg3723"
   inkscape:version="0.92.5 (2060ec1f9f, 2020-04-08)"
   sodipodi:docname="BTDC_Inkscape_Source_20220424.svg">
  <title
     id="title6070">BackToDirtConservancy.org</title>
  <defs
     id="defs3717">
    <linearGradient
       inkscape:collect="always"
       id="linearGradient6330">
      <stop
         style="stop-color:#d45500;stop-opacity:1"
         offset="0"
         id="stop6326" />
      <stop
         style="stop-color:#ffcc00;stop-opacity:1"
         offset="1"
         id="stop6328" />
    </linearGradient>
    <linearGradient
       id="Sunset"
       inkscape:collect="always"
       osb:paint="gradient">
      <stop
         id="stop6221"
         offset="0"
         style="stop-color:#000000;stop-opacity:1;" />
      <stop
         id="stop6223"
         offset="1"
         style="stop-color:#ff0000;stop-opacity:1" />
    </linearGradient>
    <linearGradient
       inkscape:collect="always"
       xlink:href="#linearGradient6330"
       id="linearGradient6332"
       x1="216.75659"
       y1="379.1221"
       x2="214.80331"
       y2="189.31953"
       gradientUnits="userSpaceOnUse"
       gradientTransform="matrix(0.89999996,0,0,0.91999986,-193.82486,33.011309)" />
  </defs>
  <sodipodi:namedview
     id="base"
     pagecolor="#ffffff"
     bordercolor="#666666"
     borderopacity="1.0"
     inkscape:pageopacity="0.0"
     inkscape:pageshadow="2"
     inkscape:zoom="0.74653479"
     inkscape:cx="122.93678"
     inkscape:cy="67.54918"
     inkscape:document-units="mm"
     inkscape:current-layer="layer9"
     showgrid="false"
     inkscape:pagecheckerboard="true"
     showborder="false"
     borderlayer="false"
     inkscape:showpageshadow="true"
     inkscape:window-width="1876"
     inkscape:window-height="1016"
     inkscape:window-x="44"
     inkscape:window-y="27"
     inkscape:window-maximized="1"
     fit-margin-top="0"
     fit-margin-left="0"
     fit-margin-right="0"
     fit-margin-bottom="0"
     inkscape:snap-global="true"
     inkscape:snap-intersection-paths="true"
     inkscape:snap-others="true" />
  <metadata
     id="metadata3720">
    <rdf:RDF>
      <cc:Work
         rdf:about="">
        <dc:format>image/svg+xml</dc:format>
        <dc:type
           rdf:resource="http://purl.org/dc/dcmitype/StillImage" />
        <dc:title>BackToDirtConservancy.org</dc:title>
        <dc:date>04/22/2022</dc:date>
        <dc:creator>
          <cc:Agent>
            <dc:title>Gutshall</dc:title>
          </cc:Agent>
        </dc:creator>
        <dc:rights>
          <cc:Agent>
            <dc:title>BackToDirtConservancy.org</dc:title>
          </cc:Agent>
        </dc:rights>
      </cc:Work>
    </rdf:RDF>
  </metadata>
  <g
     inkscape:groupmode="layer"
     id="layer2"
     inkscape:label="Base"
     style="display:inline"
     sodipodi:insensitive="true">
    <path
       style="fill:#e3f4d7;fill-opacity:1;stroke:none;stroke-width:0.53820997"
       d="m -7.615611,421.88488 c -38.215241,-4.17085 -70.273594,-33.32096 -85.096819,-77.37706 -5.438494,-16.16375 -7.7068,-32.44009 -7.224401,-51.83912 0.574063,-23.08535 5.039887,-41.99379 14.432421,-61.10729 15.351017,-31.23883 39.474518,-51.66111 68.956384,-58.37657 4.440212,-1.0114 6.839329,-1.18479 16.39454,-1.18485 9.547206,-7e-5 11.985096,0.17581 16.578696,1.19602 14.01741,3.11317 26.93155,9.44031 38.65865,18.94036 8.36225,6.77422 18.48396,18.63777 24.96875,29.26565 9.64633,15.80928 16.11856,34.96096 19.01278,56.25983 1.12177,8.2552 1.26511,28.5367 0.25926,36.68376 -7.5969,61.53219 -48.1478,106.47551 -97.07961,107.59512 -4.250739,0.0973 -8.68802,0.0721 -9.860651,-0.0558 z"
       id="path6174"
       inkscape:connector-curvature="0" />
  </g>
  <g
     inkscape:groupmode="layer"
     id="layer3"
     inkscape:label="Horizon"
     style="display:inline"
     sodipodi:insensitive="true">
    <path
       style="display:inline;fill:url(#linearGradient6332);fill-opacity:1;stroke:none;stroke-width:0.48974144"
       d="m -6.8540478,411.89407 c -34.3937102,-3.83718 -63.2462282,-30.65528 -76.5871392,-71.18689 -4.894642,-14.87065 -6.93612,-29.84488 -6.50196,-47.69199 0.516662,-21.23851 4.535908,-38.63428 12.989181,-56.2187 13.815915,-28.73971 35.527072,-47.52821 62.060748,-53.70644 3.996195,-0.93048 6.1554034,-1.09 14.75508323,-1.09005 8.59247967,-7e-5 10.78658677,0.16174 14.92082677,1.10033 12.615665,2.86412 24.238388,8.68508 34.792785,17.42513 7.526027,6.23229 16.635559,17.14675 22.471868,26.92439 8.681699,14.54454 14.506704,32.16409 17.1115,51.75905 1.009594,7.59478 1.138608,26.25376 0.233341,33.74905 -6.837212,56.60961 -43.333024,97.95746 -87.3716477,98.9875 -3.8256685,0.0896 -7.8192204,0.0663 -8.8745861,-0.0513 z"
       id="path6174-5"
       inkscape:connector-curvature="0" />
  </g>
  <g
     inkscape:groupmode="layer"
     id="layer6"
     inkscape:label="sun"
     sodipodi:insensitive="true"
     style="display:inline">
    <circle
       style="opacity:1;fill:#e3f4d7;fill-opacity:1;stroke:#000000;stroke-width:0;stroke-miterlimit:4;stroke-dasharray:none;stroke-dashoffset:0;stroke-opacity:1"
       id="path6427"
       cx="5e-07"
       cy="270.28772"
       r="40" />
  </g>
  <g
     inkscape:groupmode="layer"
     id="layer5"
     inkscape:label="Tree"
     sodipodi:insensitive="true"
     style="display:inline">
    <rect
       style="opacity:1;fill:#000000;fill-opacity:1;stroke:#000000;stroke-width:0;stroke-miterlimit:4;stroke-dasharray:none;stroke-dashoffset:0;stroke-opacity:1"
       id="rect6335"
       width="100"
       height="29.999998"
       x="-50.697819"
       y="353.11267" />
    <g
       id="g6454"
       transform="translate(0,17.462505)">
      <rect
         y="222"
         x="-2.9999995"
         height="150"
         width="5.999999"
         id="rect6337"
         style="opacity:1;fill:#000000;fill-opacity:1;stroke:#000000;stroke-width:0;stroke-miterlimit:4;stroke-dasharray:none;stroke-dashoffset:0;stroke-opacity:1" />
      <path
         inkscape:connector-curvature="0"
         id="path6341"
         d="m -16.983957,244.30962 c 0,0 16.48692045,-3.1871 16.7979942,-22.30962"
         style="fill:none;stroke:#000000;stroke-width:6.00001669;stroke-linecap:butt;stroke-linejoin:miter;stroke-miterlimit:4;stroke-dasharray:none;stroke-opacity:1" />
      <path
         inkscape:connector-curvature="0"
         id="path6341-6"
         d="m 16.612031,244.30962 c 0,0 -16.4869208,-3.1871 -16.7979938,-22.30962"
         style="fill:none;stroke:#000000;stroke-width:6.00001669;stroke-linecap:butt;stroke-linejoin:miter;stroke-miterlimit:4;stroke-dasharray:none;stroke-opacity:1" />
      <path
         inkscape:connector-curvature="0"
         id="path6388"
         d="m -0.1859628,222 c -0.11030801,36.78105 -22.6268892,40.3363 -22.6268892,40.3363"
         style="fill:none;stroke:#000000;stroke-width:6;stroke-linecap:butt;stroke-linejoin:miter;stroke-miterlimit:4;stroke-dasharray:none;stroke-opacity:1" />
      <path
         style="fill:none;stroke:#000000;stroke-width:6;stroke-linecap:butt;stroke-linejoin:miter;stroke-miterlimit:4;stroke-dasharray:none;stroke-opacity:1"
         d="m -0.1859628,222 c 0.110308,36.78105 22.6268888,40.3363 22.6268888,40.3363"
         id="path6390"
         inkscape:connector-curvature="0" />
      <path
         inkscape:connector-curvature="0"
         id="path6409"
         d="M -0.18699979,222.56444 C 0,289.00067 -26.368102,281.89018 -26.368102,281.89018"
         style="fill:none;stroke:#000000;stroke-width:6;stroke-linecap:butt;stroke-linejoin:miter;stroke-miterlimit:4;stroke-dasharray:none;stroke-opacity:1" />
      <path
         inkscape:connector-curvature="0"
         id="path6409-9"
         d="m -0.18501988,222.56444 c -0.187,66.43623 26.18110888,59.32574 26.18110888,59.32574"
         style="fill:none;stroke:#000000;stroke-width:6;stroke-linecap:butt;stroke-linejoin:miter;stroke-miterlimit:4;stroke-dasharray:none;stroke-opacity:1" />
    </g>
  </g>
  <g
     inkscape:groupmode="layer"
     id="layer7"
     inkscape:label="GreenBorder"
     style="display:inline"
     sodipodi:insensitive="true">
    <ellipse
       style="opacity:1;fill:none;fill-opacity:1;stroke:#008a65;stroke-width:40;stroke-miterlimit:4;stroke-dasharray:none;stroke-dashoffset:0;stroke-opacity:1"
       id="path6445"
       cx="-1.2434498e-14"
       cy="297"
       rx="75"
       ry="100" />
  </g>
  <g
     inkscape:groupmode="layer"
     id="layer9"
     inkscape:label="Text-Guildlines"
     style="display:none">
    <ellipse
       transform="scale(-1)"
       ry="114.50001"
       rx="89.5"
       cy="-297"
       cx="-2.3728703e-08"
       id="ellipse6494"
       style="display:inline;opacity:1;fill:none;fill-opacity:1;stroke:#000000;stroke-width:0.99999988;stroke-miterlimit:4;stroke-dasharray:none;stroke-dashoffset:0;stroke-opacity:1" />
    <ellipse
       style="display:inline;opacity:1;fill:none;fill-opacity:1;stroke:#000000;stroke-width:0.99999988;stroke-miterlimit:4;stroke-dasharray:none;stroke-dashoffset:0;stroke-opacity:1"
       id="path6461"
       cx="8.7210464e-07"
       cy="-296.99991"
       rx="74.5"
       ry="99.5"
       transform="scale(-1)" />
    <ellipse
       style="display:inline;opacity:1;fill:none;fill-opacity:1;stroke:#000000;stroke-width:0.99999988;stroke-miterlimit:4;stroke-dasharray:none;stroke-dashoffset:0;stroke-opacity:1"
       id="ellipse6496"
       cx="-8.7789539e-07"
       cy="-297"
       rx="59.5"
       ry="84.5"
       transform="scale(-1)" />
  </g>
  <g
     inkscape:groupmode="layer"
     id="layer8"
     inkscape:label="Text"
     style="display:inline"
     sodipodi:insensitive="true">
    <g
       aria-label="CONSERVANCY"
       transform="translate(-1.3590425e-5,-9.4790634e-5)"
       style="font-style:normal;font-variant:normal;font-weight:bold;font-stretch:normal;font-size:24.69444466px;line-height:1.25;font-family:Ubuntu;-inkscape-font-specification:'Ubuntu, Bold';font-variant-ligatures:normal;font-variant-caps:normal;font-variant-numeric:normal;font-feature-settings:normal;text-align:start;letter-spacing:0px;word-spacing:0px;writing-mode:lr-tb;text-anchor:start;fill:#e3f4d7;fill-opacity:1;stroke:#e3f4d7;stroke-width:0.26458332;stroke-opacity:1"
       id="text6526">
      <path
         d="m -72.969744,343.64746 q -1.419298,-3.9246 0.01618,-6.78084 1.443874,-2.83301 5.461371,-4.2859 1.997137,-0.72225 3.779798,-0.65792 1.805883,0.0559 3.268835,0.76107 1.486175,0.69674 2.589399,2.00465 1.103225,1.3079 1.741489,3.07282 0.369521,1.02179 0.5093,1.91659 0.163,0.8864 0.180749,1.58899 0.04097,0.69419 -0.01686,1.18778 -0.05784,0.49359 -0.106762,0.72136 l -3.303957,0.0132 q 0.12604,-0.88589 0.04359,-1.98523 -0.07405,-1.07613 -0.527559,-2.33015 -0.302335,-0.83601 -0.874943,-1.54802 -0.56421,-0.68878 -1.41797,-1.08904 -0.822139,-0.38543 -1.931856,-0.40427 -1.109718,-0.0188 -2.503069,0.48506 -1.114681,0.40311 -2.006045,0.98807 -0.859743,0.59977 -1.36326,1.38583 -0.495118,0.80929 -0.593992,1.84291 -0.07565,1.02523 0.377853,2.27925 0.285539,0.78956 0.605181,1.38298 0.319642,0.59341 0.612117,1.03909 0.315698,0.43729 0.612627,0.75006 0.296929,0.31277 0.545441,0.56428 l -2.541692,2.04834 q -0.741592,-0.59838 -1.617045,-1.85736 -0.875453,-1.25898 -1.538912,-3.09356 z"
         style="letter-spacing:3.95552063px"
         id="path6730"
         inkscape:connector-curvature="0" />
      <path
         d="m -59.250402,352.76752 q -1.091433,0.62842 -1.820996,1.39042 -0.717242,0.78341 -1.075858,1.64528 -0.324893,0.87095 -0.24836,1.79572 0.07653,0.92477 0.618696,1.8664 0.52984,0.92023 1.291194,1.4507 0.773675,0.55187 1.677697,0.68675 0.937744,0.14396 1.963032,-0.10443 1.03761,-0.22699 2.129043,-0.8554 1.091432,-0.62842 1.808674,-1.41182 0.750964,-0.77433 1.075857,-1.64528 0.358616,-0.86187 0.269761,-1.80804 -0.07653,-0.92477 -0.606374,-1.845 -0.542162,-0.94163 -1.324916,-1.45978 -0.761354,-0.53047 -1.699098,-0.67443 -0.904021,-0.13488 -1.963032,0.10443 -1.025289,0.24839 -2.09532,0.86448 z m 6.518269,11.32094 q -1.904657,1.09665 -3.69259,1.35672 -1.754211,0.26915 -3.305447,-0.14848 -1.529834,-0.42994 -2.810648,-1.51618 -1.268493,-1.06484 -2.167989,-2.62708 -0.874853,-1.51945 -1.158916,-3.15109 -0.284063,-1.63164 0.09984,-3.19196 0.405302,-1.57263 1.506454,-2.97602 1.122552,-1.4157 3.027209,-2.51235 1.904656,-1.09664 3.683511,-1.32299 1.800255,-0.23867 3.363812,0.20035 1.575879,0.46043 2.83205,1.50386 1.268492,1.06484 2.118701,2.54148 0.874853,1.51945 1.158916,3.15109 0.284063,1.63165 -0.121238,3.20428 -0.405301,1.57264 -1.527854,2.98834 -1.101152,1.40338 -3.005808,2.50003 z"
         style="letter-spacing:3.95552063px"
         id="path6732"
         inkscape:connector-curvature="0" />
      <path
         d="m -48.069448,382.59645 q 1.033634,-3.21009 1.828423,-6.56927 0.794789,-3.35918 1.186228,-6.68164 l -8.229895,7.61325 -2.582468,-2.79164 12.562373,-11.62111 2.129697,2.3022 q -0.04482,1.15159 -0.244172,2.68162 -0.19935,1.53003 -0.508824,3.19556 -0.274576,1.6669 -0.65656,3.39952 -0.363856,1.71584 -0.739048,3.27397 l 7.414156,-6.85863 2.599238,2.80977 -12.562373,11.6211 z"
         style="letter-spacing:3.95552063px"
         id="path6734"
         inkscape:connector-curvature="0" />
      <path
         d="m -34.19703,390.10549 q 0.680739,0.44798 1.181811,0.62991 0.535277,0.17488 0.925622,0.1657 0.403921,-0.0298 0.683539,-0.2301 0.279619,-0.20029 0.49682,-0.53035 0.461554,-0.70137 0.100096,-1.58959 -0.347883,-0.90886 -1.603948,-2.50406 -0.538466,-0.70909 -1.036206,-1.48007 -0.484165,-0.79161 -0.728906,-1.63259 -0.231165,-0.86161 -0.13387,-1.77313 0.11087,-0.93214 0.762475,-1.92231 0.651604,-0.99016 1.53877,-1.52969 0.90074,-0.56016 1.948006,-0.66915 1.047266,-0.10899 2.206854,0.24025 1.173163,0.3286 2.390241,1.12953 1.44399,0.95026 2.292414,1.95201 0.848423,1.00176 1.28481,1.82105 l -2.598017,1.92642 q -0.394598,-0.70311 -0.987895,-1.41872 -0.559094,-0.72267 -1.590516,-1.40143 -1.155192,-0.7602 -1.888105,-0.76953 -0.698709,-0.0164 -1.133112,0.64374 -0.257927,0.39194 -0.248747,0.78228 0.0092,0.39035 0.189908,0.83446 0.214933,0.43706 0.525954,0.9078 0.345225,0.46368 0.759388,1.00229 0.842434,1.14562 1.396069,2.10119 0.567211,0.93495 0.750597,1.82424 0.204016,0.90287 -0.0029,1.80134 -0.206959,0.89847 -0.885714,1.92989 -1.316785,2.00096 -3.452573,2.19179 -2.122214,0.1702 -4.94831,-1.68959 -0.948908,-0.62446 -1.630709,-1.2505 -0.695377,-0.60543 -1.185,-1.16413 -0.468996,-0.54513 -0.780017,-1.01586 -0.290393,-0.45716 -0.47059,-0.81224 l 2.590963,-1.96062 q 0.408705,0.77151 1.146933,1.67119 0.772432,0.89262 2.133908,1.78858 z"
         style="letter-spacing:3.95552063px"
         id="path6736"
         inkscape:connector-curvature="0" />
      <path
         d="m -23.904182,399.28841 5.344405,-16.25733 10.9789737,3.60921 -1.0102699,3.07317 -7.3193158,-2.40614 -1.04883,3.19047 6.498239,2.13622 -0.987134,3.0028 -6.498239,-2.13622 -1.287901,3.91771 7.858881,2.58352 -1.01027,3.07317 z"
         style="letter-spacing:3.95552063px"
         id="path6738"
         inkscape:connector-curvature="0" />
      <path
         d="m -0.46625497,386.86866 q 3.85223887,0.027 5.89214267,1.42419 2.0400768,1.37251 2.0198424,4.26169 -0.012625,1.80265 -0.8601708,2.93269 -0.8226791,1.10551 -2.3828875,1.73666 0.5140741,0.64567 1.0761523,1.48924 0.5622512,0.81887 1.0991167,1.73635 0.5617323,0.89296 1.0733852,1.88434 0.5118259,0.96669 0.9497431,1.90817 l -4.3214218,-0.0303 q -0.4633029,-0.84288 -0.9511267,-1.71062 -0.4631299,-0.86757 -0.9759934,-1.6861 -0.4881696,-0.81836 -0.977031,-1.53794 -0.48868851,-0.74427 -0.97841465,-1.34038 l -1.90142565,-0.0133 -0.043755,6.24754 -3.8522389,-0.027 0.1181203,-16.86589 q 1.2611152,-0.23812 2.5952743,-0.32755 1.358853,-0.0893 2.42068803,-0.0818 z m 0.19924308,3.28584 q -0.41979527,-0.003 -0.76568191,0.0193 -0.3211929,0.0224 -0.6176919,0.0451 l -0.032513,4.64244 1.08652894,0.008 q 2.17305786,0.0152 3.11522846,-0.52147 0.9421707,-0.53669 0.9513367,-1.84547 0.00882,-1.25938 -0.9506078,-1.7847 -0.9345612,-0.54983 -2.78659909,-0.5628 z"
         style="letter-spacing:3.95552063px"
         id="path6740"
         inkscape:connector-curvature="0" />
      <path
         d="m 19.268317,401.41915 q -1.623119,-1.73386 -3.275802,-3.63982 -1.652682,-1.90595 -3.196195,-3.79523 -1.543513,-1.88928 -2.9088688,-3.62844 -1.3418537,-1.74675 -2.3592355,-3.13111 l 4.0423523,-1.3039 q 0.924892,1.2585 1.996099,2.72928 1.087129,1.43971 2.174257,2.87941 1.110631,1.43212 2.128772,2.73838 1.018142,1.30627 1.836902,2.23575 0.09782,-1.22513 0.160772,-2.88012 0.08645,-1.66257 0.127425,-3.46615 0.06447,-1.81116 0.08194,-3.60716 0.03339,-1.82709 0.04858,-3.38883 l 3.90134,-1.25842 q -0.04021,1.72549 -0.10848,3.92709 -0.06827,2.2016 -0.216903,4.6367 -0.148634,2.4351 -0.376115,4.94752 -0.227481,2.51243 -0.53153,4.86792 z"
         style="letter-spacing:3.95552063px"
         id="path6742"
         inkscape:connector-curvature="0" />
      <path
         d="m 42.655547,389.12864 q -0.730783,-0.57452 -1.550585,-1.14725 -0.799533,-0.58684 -1.599066,-1.17368 l -5.472612,3.80869 q 0.272541,0.9536 0.524813,1.92131 0.272541,0.9536 0.557407,1.83845 l -3.283567,2.28521 q -0.78941,-2.82027 -1.42009,-5.23953 -0.63068,-2.41927 -1.14673,-4.58737 -0.49578,-2.1822 -0.905142,-4.15377 -0.4032,-2.00594 -0.709436,-3.95903 l 3.020071,-2.10182 q 1.704793,0.97975 3.445742,2.05468 1.726842,1.05466 3.580641,2.29175 1.874068,1.22298 3.923573,2.65481 2.049506,1.43183 4.419893,3.1518 z m -11.351234,-8.22629 q 0.110249,0.37457 0.274321,1.04262 0.164073,0.66806 0.380189,1.54058 0.216116,0.87253 0.470169,1.92925 0.274322,1.04262 0.5848,2.18043 l 3.992979,-2.77893 q -0.959083,-0.68641 -1.841473,-1.30584 -0.88239,-0.61943 -1.645767,-1.11109 -0.743108,-0.50576 -1.31256,-0.89169 -0.569451,-0.38593 -0.902658,-0.60533 z"
         style="letter-spacing:3.95552063px"
         id="path6744"
         inkscape:connector-curvature="0" />
      <path
         d="m 57.918197,373.61508 q -3.309484,-0.64836 -6.738895,-1.04198 -3.429411,-0.39363 -6.774846,-0.39103 l 8.529556,7.27595 -2.468053,2.89328 -13.019785,-11.10624 2.035342,-2.38602 q 1.148859,-0.0911 2.691715,-0.0734 1.542856,0.0178 3.233251,0.12892 1.687634,0.0763 3.45318,0.25161 1.746758,0.15923 3.338234,0.3483 l -7.684116,-6.55476 2.48408,-2.91208 13.019784,11.10624 z"
         style="letter-spacing:3.95552063px"
         id="path6746"
         inkscape:connector-curvature="0" />
      <path
         d="m 68.429248,357.83586 q -2.00944,3.65774 -5.102151,4.46633 -3.080821,0.78695 -6.825139,-1.27005 -1.861337,-1.02256 -2.990414,-2.40357 -1.15072,-1.39291 -1.587481,-2.9571 -0.458404,-1.57608 -0.204985,-3.26827 0.253419,-1.69219 1.157073,-3.33709 0.523168,-0.95231 1.102718,-1.64825 0.557907,-0.70782 1.073733,-1.18518 0.494183,-0.48925 0.902997,-0.77182 0.408815,-0.28257 0.612153,-0.39627 l 2.192018,2.47212 q -0.748425,0.49046 -1.519424,1.27844 -0.759109,0.76634 -1.401179,1.93509 -0.428046,0.77917 -0.584481,1.67937 -0.144545,0.87856 0.118794,1.78397 0.253585,0.87187 0.972367,1.71755 0.718782,0.84569 2.01739,1.5591 1.038886,0.57073 2.066813,0.85368 1.018173,0.24942 1.940951,0.10832 0.934668,-0.16273 1.776077,-0.77116 0.819766,-0.62032 1.461836,-1.78907 0.404266,-0.73587 0.638727,-1.36781 0.234461,-0.63193 0.375937,-1.14589 0.119834,-0.52586 0.158572,-0.95539 0.03874,-0.42952 0.06345,-0.78223 l 3.21671,0.55561 q 0.04049,0.95203 -0.326622,2.44088 -0.367116,1.48885 -1.30644,3.19869 z"
         style="letter-spacing:3.95552063px"
         id="path6748"
         inkscape:connector-curvature="0" />
      <path
         d="m 66.203952,336.91152 q -1.311051,-1.55914 -2.654803,-3.02508 -1.343753,-1.46595 -2.759862,-2.80025 l 1.406215,-4.00791 q 2.143789,2.24388 4.091763,4.52373 1.947974,2.27986 3.86202,4.731 l 6.174978,2.16655 -1.275404,3.63508 -6.128375,-2.1502 q -3.025936,0.7179 -6.002819,1.296 -2.968707,0.55478 -6.044522,0.96731 l 1.479796,-4.21762 q 1.939351,-0.15701 3.896279,-0.43871 1.956928,-0.28169 3.954734,-0.6799 z"
         style="letter-spacing:3.95552063px"
         id="path6750"
         inkscape:connector-curvature="0" />
    </g>
    <g
       transform="translate(177.59364,78.858946)"
       aria-label="BTD"
       style="font-style:normal;font-variant:normal;font-weight:bold;font-stretch:normal;font-size:35.27777863px;line-height:1.25;font-family:Ubuntu;-inkscape-font-specification:'Ubuntu, Bold';font-variant-ligatures:normal;font-variant-caps:normal;font-variant-numeric:normal;font-feature-settings:normal;text-align:start;letter-spacing:0px;word-spacing:0px;writing-mode:lr-tb;text-anchor:start;display:inline;fill:#e3f4d7;fill-opacity:1;stroke:#e3f4d7;stroke-width:0.5;stroke-miterlimit:4;stroke-dasharray:none;stroke-opacity:1"
       id="text6518-8">
      <path
         inkscape:connector-curvature="0"
         d="m -198.75471,138.8452 q -1.77401,0.94674 -3.61446,1.769 -1.79272,0.83677 -3.90715,1.44536 l -11.16166,-20.91467 q 1.34442,-1.07737 3.05199,-2.14861 1.69096,-1.10236 3.21599,-1.91623 2.05412,-1.09624 3.93198,-1.69854 1.89238,-0.65003 3.51932,-0.59858 1.62694,0.0514 2.94281,0.8687 1.33039,0.76953 2.24392,2.4813 1.3786,2.58321 -0.31398,5.40588 2.46936,-0.31816 3.93052,0.6215 1.46117,0.93966 2.35809,2.6203 1.81045,3.39241 0.23414,6.43295 -1.54519,3.02393 -6.43151,5.63164 z m -7.62431,-8.3671 2.97313,5.57102 q 0.56231,-0.22012 1.20138,-0.52119 0.63907,-0.30107 1.38602,-0.6997 2.17861,-1.16267 3.18471,-2.49935 1.00609,-1.33667 0.10917,-3.01731 -0.79726,-1.49391 -2.24988,-1.51842 -1.46923,-0.0556 -3.55447,1.05721 z m -1.97654,-3.70364 2.36535,-1.26233 q 2.24085,-1.19589 2.90669,-2.27101 0.64923,-1.10623 -0.0318,-2.38228 -0.6976,-1.30716 -1.9759,-1.30475 -1.27831,0.002 -3.20793,1.03222 -0.62246,0.33219 -1.32168,0.74533 -0.71583,0.38203 -1.24283,0.74325 z"
         id="path6616-8" />
      <path
         inkscape:connector-curvature="0"
         d="m -166.72787,108.36356 -0.0248,4.69187 -7.37295,-0.039 -0.10449,19.75527 -5.50326,-0.0291 0.10449,-19.75528 -7.37295,-0.039 0.0248,-4.69188 z"
         id="path6618-6" />
      <path
         inkscape:connector-curvature="0"
         d="m -156.13461,133.02186 q 0.31786,0.22538 0.72724,0.50391 0.45761,0.26573 1.06775,0.62005 3.56931,2.07273 6.32293,1.2649 2.78412,-0.79012 4.62656,-3.96284 1.931,-3.32527 1.27571,-5.9903 -0.6553,-2.66504 -4.22462,-4.73778 -0.48811,-0.28345 -1.02445,-0.55411 -0.51861,-0.30117 -1.01165,-0.50589 z m 17.6561,1.27824 q -1.59441,2.74563 -3.63556,4.29356 -2.04115,1.54793 -4.407,1.96902 -2.33535,0.43881 -4.98261,-0.201 -2.64726,-0.63981 -5.4539,-2.26965 -1.2813,-0.74406 -2.91882,-1.85817 -1.65525,-1.0836 -3.10775,-2.37582 l 11.95809,-20.59221 q 1.82453,0.65157 3.64708,1.58756 1.87078,0.9232 3.15207,1.66726 2.71512,1.57669 4.55731,3.46236 1.8727,1.90339 2.69729,4.1364 0.82459,2.23302 0.49183,4.77303 -0.33276,2.54 -1.99803,5.40766 z"
         id="path6620-8" />
    </g>
    <path
       style="display:inline;opacity:1;fill:none;fill-opacity:1;stroke:#e3f4d7;stroke-width:5;stroke-miterlimit:4;stroke-dasharray:none;stroke-dashoffset:0;stroke-opacity:1"
       id="path6461-7"
       transform="scale(-1)"
       sodipodi:type="arc"
       sodipodi:cx="-1.5439719"
       sodipodi:cy="-295.20871"
       sodipodi:rx="74.5"
       sodipodi:ry="99.5"
       sodipodi:start="6.038631"
       sodipodi:end="0.84185707"
       d="M 70.739306,-319.30004 A 74.5,99.5 0 0 1 48.0789,-220.99351"
       sodipodi:open="true" />
    <path
       style="display:inline;opacity:1;fill:none;fill-opacity:1;stroke:#e3f4d7;stroke-width:5;stroke-miterlimit:4;stroke-dasharray:none;stroke-dashoffset:0;stroke-opacity:1"
       id="path6461-7-2"
       transform="scale(1,-1)"
       sodipodi:type="arc"
       sodipodi:cx="-1.4309599"
       sodipodi:cy="-294.59155"
       sodipodi:rx="74.5"
       sodipodi:ry="99.5"
       sodipodi:start="6.038631"
       sodipodi:end="0.84185707"
       d="m 70.852317,-318.68288 a 74.5,99.5 0 0 1 -22.660405,98.30652"
       sodipodi:open="true" />
  </g>
  <g
     inkscape:groupmode="layer"
     id="layer4"
     inkscape:label="cross"
     style="display:none"
     sodipodi:insensitive="true">
    <path
       style="fill:none;stroke:#000000;stroke-width:0.25;stroke-linecap:butt;stroke-linejoin:miter;stroke-miterlimit:4;stroke-dasharray:1, 0.25;stroke-dashoffset:0;stroke-opacity:1"
       d="m -124.99915,296.50001 285.2893,-1.82877"
       id="path6180"
       inkscape:connector-curvature="0" />
    <path
       inkscape:connector-curvature="0"
       id="path6201"
       d="m -124.99679,371.50001 285.2893,-1.82877"
       style="fill:none;stroke:#000000;stroke-width:1;stroke-linecap:butt;stroke-linejoin:miter;stroke-miterlimit:4;stroke-dasharray:4, 1;stroke-dashoffset:0;stroke-opacity:1" />
    <path
       inkscape:connector-curvature="0"
       id="path6203"
       d="m -126.21834,221.50001 285.2893,-1.82877"
       style="fill:none;stroke:#000000;stroke-width:1;stroke-linecap:butt;stroke-linejoin:miter;stroke-miterlimit:4;stroke-dasharray:4, 1;stroke-dashoffset:0;stroke-opacity:1" />
    <path
       style="display:inline;fill:none;stroke:#000000;stroke-width:0.25;stroke-linecap:butt;stroke-linejoin:miter;stroke-miterlimit:4;stroke-dasharray:1.5, 0.25;stroke-dashoffset:0;stroke-opacity:1"
       d="m 0.49999998,116.52248 0.105989,358.4411"
       id="path6199"
       inkscape:connector-curvature="0" />
  </g>
</svg>
